<?xml version="1.0" encoding="utf-8"?>
<svg xmlns="http://www.w3.org/2000/svg" viewBox="58.2905 172.393 22.4001 26" width="22.4001px" height="26px"><g id="object-0"><path d="M59.2905 191.793C58.6905 191.493 58.2905 191.093 58.2905 190.293V186.693C58.2905 186.193 58.4905 185.693 58.9905 185.393L66.1905 180.393L70.8905 183.393L64.3905 188.093L71.8905 192.193V198.393L59.2905 191.793ZM60.3905 186.093C59.9905 186.393 59.6905 186.893 59.6905 187.393V189.493C59.6905 190.093 59.9905 190.593 60.4905 190.893L70.5905 196.093V192.993L63.5905 189.193L62.9905 188.893C62.7905 188.793 62.5905 188.493 62.5905 188.293C62.5905 187.993 62.6905 187.793 62.8905 187.693L63.3905 187.293L68.3905 183.593L66.0905 182.193L60.3905 186.093Z" fill="#111111"/><path d="M79.6906 179.593C80.2906 179.893 80.6906 180.293 80.6906 181.093V184.693C80.6906 185.193 80.4906 185.693 79.9906 185.993L72.7906 190.993L68.0906 187.993L74.5906 183.293L67.0906 178.593V172.393L79.6906 179.593ZM78.6906 185.193C79.0906 184.893 79.3906 184.393 79.3906 183.893V181.793C79.3906 181.193 79.0906 180.693 78.5906 180.393L68.4906 174.593V177.693L75.4906 182.093L76.0906 182.393C76.2906 182.493 76.4906 182.793 76.4906 182.993C76.4906 183.293 76.3906 183.493 76.1906 183.593L75.6906 183.993L70.6906 187.693L72.9906 189.093L78.6906 185.193Z" fill="#111111"/></g></svg>